<?xml version="1.0" encoding="iso-8859-1"?>
<!-- Uploaded to: SVG Repo, www.svgrepo.com, Generator: SVG Repo Mixer Tools -->
<svg fill="#000000" height="800px" width="800px" version="1.1" id="Layer_1" xmlns="http://www.w3.org/2000/svg" xmlns:xlink="http://www.w3.org/1999/xlink" 
	 viewBox="0 0 512.001 512.001" xml:space="preserve">
<g>
	<g>
		<g>
			<path d="M421.117,220.612h-89.511l-7.635-38.177c-1.561-7.805-8.414-13.423-16.372-13.423H204.401
				c-7.958,0-14.812,5.618-16.372,13.423l-7.635,38.177h-7.498V185.71c0-9.221-7.475-16.696-16.696-16.696H94.281
				c-9.221,0-16.696,7.475-16.696,16.696v36.46c-25.577,6.028-44.678,29.027-44.678,56.418v175.437
				c0,31.969,26.008,57.976,57.976,57.976h330.236c31.969,0,57.976-26.007,57.976-57.976V278.588
				C479.093,246.619,453.086,220.612,421.117,220.612z M110.977,202.406h28.527v18.207h-28.527V202.406z M445.701,454.025
				c0,13.556-11.027,24.583-24.583,24.583H90.882c-13.555,0-24.583-11.027-24.583-24.583V278.588
				c0-13.556,11.028-24.583,24.583-24.583c14.486,0,92.743,0,103.199,0c7.958,0,14.812-5.618,16.371-13.423l7.636-38.177h75.824
				l7.635,38.177c1.561,7.805,8.414,13.423,16.372,13.423h103.199c13.556,0,24.583,11.027,24.583,24.583V454.025z"/>
			<path d="M256,256.732c-60.42,0-109.574,49.155-109.574,109.574S195.582,475.88,256,475.88
				c60.42,0,109.574-49.154,109.574-109.574S316.42,256.732,256,256.732z M256,442.489c-42.007,0-76.182-34.175-76.182-76.182
				s34.176-76.182,76.182-76.182c42.007,0,76.182,34.175,76.182,76.182S298.008,442.489,256,442.489z"/>
			<path d="M256,308.332c-31.967,0-57.976,26.007-57.976,57.976s26.008,57.976,57.976,57.976c31.969,0,57.976-26.007,57.976-57.976
				S287.968,308.332,256,308.332z M256,390.891c-13.555,0-24.583-11.027-24.583-24.583c0-13.556,11.028-24.583,24.583-24.583
				c13.556,0,24.583,11.027,24.583,24.583C280.584,379.863,269.556,390.891,256,390.891z"/>
			<path d="M410.798,272.212h-23.556c-9.221,0-16.696,7.475-16.696,16.696c0,9.221,7.475,16.696,16.696,16.696h23.556
				c9.221,0,16.696-7.475,16.696-16.696S420.019,272.212,410.798,272.212z"/>
			<path d="M146.619,41.682c7.114-11.073,26.425-11.066,33.534,0.001c0.063,0.098,0.127,0.194,0.191,0.291
				c20.365,31.217,69.35,31.119,89.53-0.293c7.116-11.075,26.426-11.062,33.534,0.001c0.062,0.098,0.126,0.196,0.19,0.292
				c20.366,31.217,69.35,31.118,89.532-0.292c7.114-11.074,26.423-11.064,33.533,0c4.984,7.761,15.317,10.01,23.071,5.024
				c7.759-4.983,10.008-15.313,5.024-23.071c-20.221-31.482-69.456-31.543-89.721-0.004c-7.103,11.055-26.427,11.061-33.534,0
				c-0.062-0.098-0.126-0.196-0.19-0.292c-20.366-31.217-69.352-31.118-89.531,0.292c-7.103,11.055-26.427,11.062-33.532,0
				c-0.063-0.1-0.129-0.199-0.195-0.297c-20.367-31.211-69.348-31.113-89.528,0.297c-7.103,11.055-26.427,11.062-33.532,0
				c-4.983-7.759-15.313-10.011-23.072-5.024c-7.758,4.983-10.008,15.313-5.024,23.071C77.119,73.16,126.355,73.222,146.619,41.682z
				"/>
			<path d="M365.036,97.226c-7.114,11.073-26.423,11.065-33.534,0c-0.07-0.11-0.14-0.216-0.211-0.324
				c-20.417-31.237-69.37-31.021-89.509,0.324c-7.114,11.072-26.424,11.066-33.532,0c-0.07-0.11-0.143-0.219-0.215-0.326
				c-20.413-31.227-69.363-31.027-89.508,0.326c-7.114,11.072-26.424,11.066-33.532,0c-4.983-7.759-15.313-10.011-23.072-5.024
				c-7.758,4.983-10.008,15.313-5.024,23.071c20.221,31.482,69.457,31.545,89.721,0.004c7.115-11.074,26.424-11.065,33.534,0.001
				c0.07,0.11,0.141,0.217,0.214,0.324c20.414,31.235,69.369,31.021,89.508-0.326c7.116-11.075,26.427-11.062,33.532,0.002
				c0.07,0.11,0.141,0.217,0.214,0.325c20.416,31.235,69.368,31.019,89.509-0.326c7.114-11.075,26.424-11.064,33.531,0.001
				c4.985,7.761,15.315,10.008,23.072,5.026c7.759-4.984,10.008-15.314,5.026-23.072C434.534,65.748,385.302,65.686,365.036,97.226z
				"/>
		</g>
	</g>
</g>
</svg>