<?xml version="1.0" encoding="iso-8859-1"?>
<!-- Uploaded to: SVG Repo, www.svgrepo.com, Generator: SVG Repo Mixer Tools -->
<svg fill="#000000" height="800px" width="800px" version="1.1" id="Layer_1" xmlns="http://www.w3.org/2000/svg" xmlns:xlink="http://www.w3.org/1999/xlink" 
	 viewBox="0 0 512 512" xml:space="preserve">
<g>
	<g>
		<path d="M495.304,205.913c-42.464,0-79.707,22.767-100.174,56.733c-4.719-7.833-10.333-15.066-16.696-21.565V122.435
			c0-64.442-52.428-116.87-116.87-116.87h-77.913c-64.442,0-116.87,52.428-116.87,116.87v118.646
			c-16.959,17.325-28.584,39.887-32.194,65.006H16.696C7.475,306.087,0,313.562,0,322.783v100.174
			c0,46.03,37.448,83.478,83.478,83.478c7.874,0,203.371,0,211.478,0c32.335,0,61.644-13.202,82.823-34.497
			c26.645-3.674,51.183-16.435,69.667-36.377c20.096-21.682,31.163-49.875,31.163-79.388v-33.391c0-9.206,7.49-16.696,16.696-16.696
			c9.22,0,16.696-7.475,16.696-16.696v-66.783C512,213.388,504.525,205.913,495.304,205.913z M100.174,122.435
			c0-46.03,37.448-83.478,83.478-83.478h77.913c46.03,0,83.478,37.448,83.478,83.478v94.77c-10.384-4.945-21.606-8.4-33.391-10.094
			v-17.893c0-27.618-22.469-50.087-50.087-50.087h-77.913c-27.618,0-50.087,22.469-50.087,50.087v17.893
			c-11.785,1.693-23.008,5.148-33.391,10.094V122.435z M278.261,189.217v16.696H166.957v-16.696c0-9.206,7.49-16.696,16.696-16.696
			h77.913C270.771,172.522,278.261,180.011,278.261,189.217z M200.348,422.957c0,27.618-22.469,50.087-50.087,50.087H83.478
			c-27.618,0-50.087-22.469-50.087-50.087v-83.478h166.957V422.957z M378.435,389.565c0,46.03-37.448,83.478-83.478,83.478h-77.959
			c10.505-13.962,16.741-31.309,16.741-50.087V322.783c0-9.22-7.475-16.696-16.696-16.696H68.462
			c7.757-38.057,41.485-66.783,81.799-66.783h144.696c46.03,0,83.478,37.448,83.478,83.478V389.565z M478.609,275.556
			c-19.435,6.891-33.391,25.46-33.391,47.226v33.391c0,29.564-15.796,56.017-39.558,70.878c3.998-11.772,6.166-24.38,6.166-37.486
			v-66.783c0-40.313,28.728-74.044,66.783-81.801V275.556z"/>
	</g>
</g>
</svg>